<?xml version="1.0" standalone="no"?>
<!DOCTYPE svg PUBLIC "-//W3C//DTD SVG 20010904//EN"
 "http://www.w3.org/TR/2001/REC-SVG-20010904/DTD/svg10.dtd">
<svg version="1.0" xmlns="http://www.w3.org/2000/svg"
  viewBox="0 0 512.000000 512.000000"
 preserveAspectRatio="xMidYMid meet">

<g transform="translate(0.000000,512.000000) scale(0.100000,-0.100000)"
fill="#000000" stroke="none">
<path d="M3940 5114 c-19 -3 -73 -14 -119 -26 -377 -92 -678 -394 -772 -773
-29 -116 -35 -297 -15 -413 74 -422 371 -743 792 -853 128 -34 358 -34 489 0
391 101 668 379 778 781 29 109 29 371 0 480 -57 206 -148 367 -286 504 -194
193 -428 293 -702 301 -71 2 -146 1 -165 -1z m278 -310 c279 -58 502 -268 579
-548 23 -84 23 -288 0 -372 -36 -132 -100 -241 -198 -341 -178 -181 -431 -258
-677 -207 -296 61 -526 291 -586 586 -107 521 362 989 882 882z"/>
<path d="M3620 4070 l0 -450 450 0 450 0 0 450 0 450 -450 0 -450 0 0 -450z
m600 0 l0 -150 -150 0 -150 0 0 150 0 150 150 0 150 0 0 -150z"/>
<path d="M1014 3348 c-705 -708 -723 -729 -838 -963 -235 -476 -235 -993 0
-1470 83 -169 173 -294 309 -430 136 -136 261 -226 430 -309 476 -235 993
-235 1470 0 234 115 254 133 965 841 l645 643 -317 317 -318 318 -612 -611
c-400 -399 -636 -626 -678 -655 -223 -149 -504 -169 -745 -54 -149 71 -278
200 -350 349 -114 237 -95 518 50 742 25 37 264 285 654 677 l616 617 -315
315 c-173 173 -317 315 -320 315 -3 0 -294 -289 -646 -642z m753 110 l103
-103 -207 -207 c-114 -115 -212 -208 -218 -208 -6 0 -55 45 -110 100 l-100
100 210 210 c115 116 212 210 215 210 2 0 51 -46 107 -102z m-738 -945 c-266
-270 -336 -376 -397 -602 -23 -85 -26 -115 -26 -261 0 -147 3 -176 27 -264
101 -376 394 -663 776 -759 71 -17 114 -21 246 -21 141 1 171 4 259 28 227 62
329 129 599 395 l208 205 104 -104 105 -105 -197 -198 c-216 -216 -317 -299
-451 -370 -451 -236 -1004 -200 -1412 92 -283 202 -478 505 -547 849 -24 119
-24 384 0 502 36 179 106 350 204 499 40 62 118 149 277 309 l220 222 105
-104 105 -105 -205 -208z m2324 -1065 l-213 -213 -100 100 c-55 55 -100 104
-100 110 0 5 93 103 207 217 l208 208 105 -105 105 -105 -212 -212z"/>
<path d="M2535 3018 c-231 -77 -422 -143 -425 -145 -2 -2 90 -98 205 -213 115
-115 207 -211 205 -213 -3 -2 -90 -32 -195 -67 -104 -35 -192 -65 -195 -67 -5
-4 79 -264 89 -275 6 -7 846 266 861 279 2 2 -90 98 -205 213 -115 115 -207
211 -205 213 3 2 91 32 195 67 105 34 193 64 197 66 10 6 -85 284 -97 283 -5
0 -199 -64 -430 -141z"/>
</g>
</svg>
