<?xml version="1.0" standalone="no"?>
<!DOCTYPE svg PUBLIC "-//W3C//DTD SVG 20010904//EN"
 "http://www.w3.org/TR/2001/REC-SVG-20010904/DTD/svg10.dtd">
<svg version="1.0" xmlns="http://www.w3.org/2000/svg"
  viewBox="0 0 512.000000 512.000000"
 preserveAspectRatio="xMidYMid meet">

<g transform="translate(0.000000,512.000000) scale(0.100000,-0.100000)"
 stroke="none">
<path d="M109 5011 l-29 -29 0 -1677 c0 -1788 -2 -1721 45 -1739 9 -3 120 -6
245 -6 l229 0 -30 -64 -30 -64 3 -420 c3 -397 4 -421 22 -441 13 -14 31 -21
57 -21 47 0 44 -3 299 344 107 146 199 265 205 266 5 0 89 -79 187 -176 172
-171 178 -177 210 -170 25 5 73 46 205 178 108 107 176 169 182 163 5 -6 108
-144 230 -307 l221 -298 39 0 c31 0 44 6 60 26 21 26 21 37 21 451 l0 424 -25
49 c-14 27 -25 52 -25 55 0 3 573 5 1274 5 701 0 1282 3 1291 6 47 18 45 -49
45 1739 l0 1677 -29 29 -29 29 -2422 0 -2422 0 -29 -29z m4771 -966 l0 -835
-210 0 -210 0 0 570 0 571 -25 24 c-42 43 -105 29 -124 -26 -8 -22 -11 -207
-11 -585 l0 -554 -115 0 -115 0 0 435 c0 370 -2 440 -15 465 -27 52 -106 52
-132 0 -10 -19 -13 -131 -13 -463 l0 -438 -117 3 -118 3 -3 252 -2 252 -28 21
c-32 26 -78 21 -104 -11 -16 -19 -18 -48 -18 -270 l0 -249 -120 0 -120 0 0
336 c0 199 -4 343 -10 354 -21 39 -103 45 -127 8 -4 -7 -10 -166 -13 -353 l-5
-340 -117 -3 -118 -3 0 104 c0 90 -3 108 -21 131 -16 20 -29 26 -58 26 -63 0
-75 -23 -79 -151 l-4 -109 -234 0 c-221 0 -235 -1 -254 -20 -27 -27 -27 -83 0
-110 20 -20 33 -20 1330 -20 l1310 0 0 -410 0 -410 -1327 2 -1328 3 -8 65
c-58 462 -258 848 -587 1133 -95 82 -117 88 -173 52 -64 -43 -265 -250 -331
-343 -164 -232 -276 -512 -306 -772 -7 -52 -14 -105 -16 -117 l-4 -23 -280 0
-280 0 0 1320 0 1320 2320 0 2320 0 0 -835z m-3081 -1024 c119 -179 193 -355
237 -567 24 -113 28 -152 28 -309 0 -131 -5 -206 -18 -275 -23 -124 -86 -313
-139 -420 l-42 -85 -352 -3 -352 -2 -45 92 c-105 216 -156 440 -156 683 0 168
11 259 50 411 68 263 205 500 408 704 l94 95 112 -115 c62 -64 139 -157 175
-209z m-995 -1000 l7 -69 -63 -116 -62 -116 -223 0 -223 0 0 185 0 185 279 0
278 0 7 -69z m4076 -116 l0 -185 -1272 2 -1271 3 -61 112 c-60 110 -61 112
-58 182 l4 71 1329 0 1329 0 0 -185z m-3901 -527 l43 -87 -143 -193 c-78 -106
-151 -202 -161 -213 -17 -19 -18 -11 -18 256 l0 275 77 143 76 143 42 -118
c23 -66 60 -158 84 -206z m1339 -232 l-3 -276 -156 211 -157 211 53 111 c29
62 66 150 81 197 15 47 29 89 32 94 2 4 38 -55 78 -132 l74 -140 -2 -276z
m-608 51 c0 -1 -44 -46 -98 -100 l-97 -97 -100 100 -100 100 198 0 c108 0 197
-1 197 -3z"/>
<path d="M3810 4730 c-30 -30 -27 -83 6 -109 21 -17 41 -21 95 -21 38 0 69 -3
69 -6 0 -3 -88 -116 -195 -250 -129 -161 -200 -242 -208 -238 -7 4 -77 64
-157 134 -171 149 -186 160 -220 160 -38 0 -860 -824 -860 -861 0 -43 36 -79
78 -79 35 0 55 19 414 377 345 345 378 375 395 362 10 -8 89 -76 177 -151 134
-117 164 -138 191 -138 18 0 42 8 53 18 11 9 109 130 218 267 l199 250 6 -42
c3 -23 14 -51 24 -63 25 -28 85 -27 111 1 17 19 19 38 19 194 0 231 16 215
-217 215 -165 0 -179 -1 -198 -20z"/>
<path d="M533 4588 c-31 -15 -49 -62 -35 -93 25 -55 34 -56 355 -53 274 3 296
4 316 22 32 29 29 88 -5 115 -26 20 -38 21 -318 20 -182 0 -299 -4 -313 -11z"/>
<path d="M533 4148 c-12 -6 -27 -24 -34 -41 -10 -24 -10 -34 2 -56 29 -51 29
-51 527 -49 l464 3 19 24 c28 35 25 85 -7 110 -26 21 -36 21 -488 20 -301 0
-469 -4 -483 -11z"/>
<path d="M534 3711 c-11 -5 -27 -24 -34 -41 -12 -28 -11 -37 1 -59 27 -47 49
-52 242 -49 l179 3 25 29 c19 23 23 36 19 60 -12 59 -19 61 -224 63 -103 1
-196 -2 -208 -6z"/>
<path d="M2870 2717 c-52 -26 -52 -105 0 -132 26 -14 120 -15 771 -13 l741 3
19 24 c26 32 24 77 -6 106 l-24 25 -738 0 c-572 0 -744 -3 -763 -13z"/>
<path d="M1407 2850 c-100 -25 -212 -113 -256 -199 -120 -234 -9 -505 238
-581 193 -60 396 31 484 218 29 61 32 75 32 168 0 95 -2 103 -37 176 -69 138
-189 217 -341 224 -45 2 -99 -1 -120 -6z m210 -172 c84 -39 136 -124 136 -223
1 -48 -5 -71 -29 -114 -50 -93 -130 -136 -239 -129 -82 5 -147 44 -190 112
-27 44 -30 58 -30 131 0 73 3 87 30 131 68 109 202 147 322 92z"/>
<path d="M1154 840 c-49 -19 -54 -41 -54 -242 0 -118 4 -196 11 -212 14 -30
61 -49 92 -37 50 19 52 30 52 247 0 190 -1 205 -20 223 -26 24 -54 32 -81 21z"/>
<path d="M1812 835 c-16 -7 -32 -20 -36 -30 -8 -21 -8 -398 0 -420 10 -24 60
-46 89 -39 51 13 55 32 55 249 0 217 -5 238 -54 247 -13 3 -38 -1 -54 -7z"/>
<path d="M1467 726 c-10 -8 -22 -29 -27 -47 -11 -38 -12 -500 -1 -538 16 -59
86 -76 131 -31 19 19 20 35 20 300 l0 281 -25 24 c-27 28 -70 32 -98 11z"/>
</g>
</svg>
