<?xml version="1.0" standalone="no"?>
<!DOCTYPE svg PUBLIC "-//W3C//DTD SVG 20010904//EN"
 "http://www.w3.org/TR/2001/REC-SVG-20010904/DTD/svg10.dtd">
<svg version="1.0" xmlns="http://www.w3.org/2000/svg"
  viewBox="0 0 512.000000 512.000000"
 preserveAspectRatio="xMidYMid meet">

<g transform="translate(0.000000,512.000000) scale(0.100000,-0.100000)"
 stroke="none">
<path d="M1120 4880 l0 -80 1840 0 1840 0 0 -1600 0 -1600 80 0 80 0 -2 1655
-3 1654 -23 23 -23 23 -1894 3 -1895 2 0 -80z"/>
<path d="M345 4471 c-70 -18 -125 -63 -161 -131 -17 -31 -19 -64 -22 -267 l-4
-233 322 0 322 0 -4 233 c-3 215 -5 235 -25 272 -25 47 -65 86 -113 111 -27
14 -63 18 -160 20 -69 2 -138 0 -155 -5z"/>
<path d="M2411 4310 c-46 -5 -84 -10 -86 -12 -1 -2 -30 -57 -63 -123 l-61
-120 -98 -30 c-54 -16 -154 -57 -222 -91 l-125 -61 -120 38 c-67 21 -128 39
-136 39 -39 0 -330 -291 -330 -330 0 -8 18 -69 39 -136 l38 -120 -61 -125
c-34 -68 -75 -169 -91 -223 l-30 -99 -122 -60 -122 -61 -8 -56 c-9 -71 -9
-289 0 -360 l8 -56 122 -61 122 -60 30 -99 c16 -54 57 -155 91 -223 l61 -125
-38 -120 c-21 -67 -39 -128 -39 -136 0 -39 291 -330 330 -330 8 0 69 18 136
39 l120 38 125 -61 c68 -34 169 -75 222 -91 l98 -30 62 -122 62 -122 55 -8
c71 -9 289 -9 360 0 l55 8 62 122 62 122 98 30 c53 16 154 57 223 91 l125 62
121 -39 c67 -22 128 -39 135 -39 39 0 329 292 329 330 0 8 -18 69 -39 136
l-38 120 61 125 c34 68 75 168 91 222 l29 97 123 62 122 63 8 55 c4 30 7 111
7 180 0 69 -3 150 -7 180 l-8 55 -122 63 -123 62 -29 97 c-16 54 -57 154 -91
223 l-62 125 39 121 c22 67 39 128 39 135 0 39 -290 329 -329 329 -7 0 -68
-17 -135 -39 l-121 -39 -125 62 c-69 34 -170 75 -223 91 l-98 30 -62 121 c-59
117 -63 122 -97 128 -71 11 -267 14 -349 6z m321 -569 c249 -64 446 -253 523
-501 25 -84 31 -249 11 -345 -20 -97 -77 -219 -140 -300 -121 -154 -179 -265
-217 -417 -17 -66 -22 -126 -26 -290 l-5 -208 -319 0 -319 0 0 148 c0 321 -60
513 -232 747 -131 180 -174 307 -165 495 12 274 174 512 425 628 136 62 321
79 464 43z"/>
<path d="M162 1865 l3 -1654 23 -23 23 -23 1894 -3 1895 -2 0 80 0 80 -1840 0
-1840 0 0 1600 0 1600 -80 0 -80 0 2 -1655z"/>
<path d="M4505 791 c-70 -18 -125 -63 -161 -131 -17 -31 -19 -64 -22 -267 l-4
-233 322 0 322 0 -4 233 c-3 215 -5 235 -25 272 -25 47 -65 86 -113 111 -27
14 -63 18 -160 20 -69 2 -138 0 -155 -5z"/>
</g>
</svg>
