<?xml version="1.0" standalone="no"?>
<!DOCTYPE svg PUBLIC "-//W3C//DTD SVG 20010904//EN"
 "http://www.w3.org/TR/2001/REC-SVG-20010904/DTD/svg10.dtd">
<svg version="1.0" xmlns="http://www.w3.org/2000/svg"
  viewBox="0 0 512.000000 512.000000"
 preserveAspectRatio="xMidYMid meet">

<g transform="translate(0.000000,512.000000) scale(0.100000,-0.100000)"
fill="#000000" stroke="none">
<path d="M2315 5109 c-800 -83 -1501 -518 -1927 -1196 -487 -774 -516 -1777
-75 -2578 200 -364 487 -676 841 -913 238 -159 600 -311 876 -366 214 -43 295
-51 530 -51 236 0 333 10 532 51 880 184 1615 842 1898 1702 92 278 125 491
125 802 0 301 -32 513 -116 775 -124 390 -330 728 -622 1024 -399 404 -893
653 -1462 737 -123 18 -478 26 -600 13z m-692 -1102 c73 -36 149 -119 177
-194 16 -44 21 -76 19 -137 l-2 -81 439 -343 c241 -188 490 -381 551 -428
l113 -86 52 35 c103 68 215 114 341 141 l27 6 0 203 -1 202 -44 27 c-121 73
-169 254 -105 391 111 236 459 236 570 0 64 -137 18 -308 -106 -394 l-44 -30
0 -198 0 -199 68 -16 c318 -78 551 -302 649 -623 24 -79 26 -104 26 -238 0
-134 -2 -159 -26 -238 -95 -312 -323 -534 -632 -618 -114 -31 -326 -31 -440 0
-91 24 -203 75 -271 122 l-46 32 -162 -162 -161 -161 3 -74 c4 -63 0 -83 -20
-128 -84 -183 -318 -229 -461 -90 -56 54 -79 105 -85 188 -4 61 -1 80 20 125
33 73 66 109 130 144 48 27 62 30 140 29 l87 0 162 162 162 162 -20 29 c-11
15 -33 53 -48 83 -125 249 -125 542 0 793 25 50 45 92 45 93 0 2 -243 193
-541 424 l-540 421 -59 -22 c-81 -29 -192 -24 -270 12 -120 56 -192 166 -198
304 -5 113 21 180 102 261 83 82 141 105 257 101 69 -2 96 -8 142 -30z"/>
<path d="M3361 2484 c-172 -46 -300 -187 -332 -365 -37 -209 92 -428 295 -500
252 -88 523 57 591 316 85 329 -225 638 -554 549z"/>
</g>
</svg>
