<?xml version="1.0" standalone="no"?>
<!DOCTYPE svg PUBLIC "-//W3C//DTD SVG 20010904//EN"
 "http://www.w3.org/TR/2001/REC-SVG-20010904/DTD/svg10.dtd">
<svg version="1.0" xmlns="http://www.w3.org/2000/svg"
  viewBox="0 0 512.000000 512.000000"
 preserveAspectRatio="xMidYMid meet">

<g transform="translate(0.000000,512.000000) scale(0.100000,-0.100000)"
 stroke="none">
<path d="M177 5106 c-83 -30 -146 -96 -167 -177 -7 -24 -9 -873 -8 -2390 l3
-2354 21 -40 c28 -51 68 -91 119 -119 l40 -21 2375 0 2375 0 40 21 c51 28 91
68 119 119 l21 40 0 2375 0 2375 -21 40 c-28 51 -68 91 -119 119 l-40 21
-2360 2 c-1963 2 -2366 0 -2398 -11z m4747 -182 l26 -27 0 -2337 0 -2337 -26
-27 -27 -26 -2337 0 -2337 0 -27 26 -26 27 0 2337 0 2337 26 27 27 26 2337 0
2337 0 27 -26z"/>
<path d="M2565 4485 l-25 -24 0 -321 0 -321 25 -24 c33 -34 83 -34 116 1 l24
26 0 318 0 318 -24 26 c-33 35 -83 35 -116 1z"/>
<path d="M3513 3797 c-189 -188 -203 -205 -203 -238 0 -47 40 -89 84 -89 26 0
58 27 238 208 186 185 208 211 208 240 0 46 -38 82 -86 82 -35 0 -49 -12 -241
-203z"/>
<path d="M1305 3915 c-16 -16 -25 -35 -25 -57 0 -29 20 -52 178 -210 158 -158
181 -178 210 -178 46 0 82 38 82 86 0 35 -11 49 -173 211 -162 162 -176 173
-211 173 -26 0 -44 -7 -61 -25z"/>
<path d="M2405 3530 c-100 -21 -214 -60 -290 -97 -149 -75 -311 -211 -414
-348 -67 -89 -154 -266 -185 -375 -126 -446 42 -952 406 -1222 l68 -50 0 -179
c0 -168 -1 -179 -19 -179 -27 0 -68 -36 -73 -64 -8 -41 16 -83 55 -95 l35 -12
3 -124 c4 -114 6 -125 28 -149 l24 -26 581 0 c441 1 585 4 597 13 32 24 39 56
39 170 l0 114 40 16 c43 17 65 54 54 91 -10 33 -45 66 -71 66 l-23 0 0 178 0
178 64 47 c35 26 99 84 142 130 291 308 388 749 254 1149 -121 360 -413 641
-775 744 -165 48 -381 57 -540 24z m487 -184 c279 -83 493 -263 619 -521 61
-126 89 -238 96 -385 8 -165 -16 -290 -85 -445 -89 -202 -276 -394 -467 -480
-82 -37 -95 -39 -95 -17 0 10 -11 29 -25 42 -23 22 -37 25 -128 28 l-102 5
100 49 c55 28 112 62 128 76 33 31 36 79 8 113 -18 22 -28 24 -147 29 l-128 5
120 69 c65 38 131 81 147 94 36 34 37 83 2 117 -21 22 -33 25 -96 25 l-72 0
72 75 73 75 -4 68 c-7 125 -83 237 -198 291 -47 22 -69 26 -150 26 -81 0 -103
-4 -150 -26 -74 -35 -136 -98 -172 -176 -26 -55 -31 -76 -30 -141 1 -190 119
-324 316 -357 l38 -6 -128 -75 c-141 -82 -164 -102 -164 -144 0 -69 24 -83
153 -90 l98 -5 -103 -54 c-108 -57 -148 -86 -148 -108 0 -18 -10 -17 -67 8
-129 55 -302 203 -390 334 -116 173 -166 339 -167 555 -2 428 266 797 676 934
114 39 168 45 333 42 126 -3 164 -8 237 -30z m-240 -847 c40 -21 73 -61 84
-103 6 -26 -2 -37 -97 -132 -64 -64 -111 -104 -124 -104 -31 0 -90 44 -116 87
-32 51 -32 135 0 187 55 88 155 114 253 65z m-372 -1199 c117 -38 215 -53 350
-53 153 1 299 29 443 88 16 7 17 -3 17 -124 l0 -131 -465 0 -465 0 0 131 c0
121 1 131 18 124 9 -4 55 -19 102 -35z m810 -455 l0 -65 -465 0 -465 0 0 65 0
65 465 0 465 0 0 -65z"/>
</g>
</svg>
