<?xml version="1.0" standalone="no"?>
<!DOCTYPE svg PUBLIC "-//W3C//DTD SVG 20010904//EN"
 "http://www.w3.org/TR/2001/REC-SVG-20010904/DTD/svg10.dtd">
<svg version="1.0" xmlns="http://www.w3.org/2000/svg"
  viewBox="0 0 512.000000 512.000000"
 preserveAspectRatio="xMidYMid meet">

<g transform="translate(0.000000,512.000000) scale(0.100000,-0.100000)"
 stroke="none">
<path d="M233 4974 c-18 -9 -42 -31 -53 -49 -20 -32 -20 -48 -20 -1417 l0
-1385 23 -21 23 -22 2355 0 2356 0 21 23 22 23 0 1383 c0 1370 0 1384 -20
1416 -44 71 162 65 -2382 65 -2081 0 -2296 -2 -2325 -16z m4567 -1439 l0
-1295 -2240 0 -2240 0 0 1295 0 1295 2240 0 2240 0 0 -1295z"/>
<path d="M1072 4629 c-261 -44 -489 -266 -548 -533 -22 -102 -15 -253 16 -346
92 -275 326 -458 611 -477 319 -21 602 179 700 497 34 108 32 273 -3 382 -39
118 -92 204 -178 290 -155 154 -379 223 -598 187z m40 -431 l3 -273 133 -223
c72 -123 132 -226 132 -231 0 -13 -76 -32 -150 -38 -145 -12 -297 44 -403 150
-273 271 -175 729 184 862 107 40 98 64 101 -247z m306 227 c104 -49 191 -135
242 -240 22 -44 42 -97 46 -118 l6 -37 -218 2 -219 3 -3 219 -2 218 37 -6 c21
-4 71 -23 111 -41z m287 -587 c-12 -65 -83 -192 -133 -241 l-49 -48 -89 152
c-49 84 -90 156 -92 161 -2 4 80 8 183 8 l187 0 -7 -32z"/>
<path d="M2195 4451 c-51 -22 -65 -91 -25 -131 18 -18 33 -20 154 -20 149 0
171 8 182 66 5 24 0 37 -19 60 -25 29 -26 29 -149 31 -67 2 -132 -1 -143 -6z"/>
<path d="M2709 4431 c-36 -36 -37 -73 -4 -106 l24 -25 254 0 c252 0 254 0 275
23 12 13 22 35 22 49 0 82 -21 88 -305 88 l-237 0 -29 -29z"/>
<path d="M2174 4177 c-20 -17 -27 -33 -27 -57 0 -24 7 -40 27 -57 25 -21 36
-23 146 -23 132 0 163 9 181 51 14 34 -2 84 -32 99 -10 6 -74 10 -143 10 -117
0 -127 -2 -152 -23z"/>
<path d="M2705 4175 c-27 -26 -31 -51 -14 -88 19 -43 45 -47 300 -47 l240 0
24 25 c16 15 25 36 25 55 0 19 -9 40 -25 55 l-24 25 -251 0 -251 0 -24 -25z"/>
<path d="M3824 4106 l-29 -24 0 -772 0 -772 28 -24 c28 -24 31 -24 223 -24
194 0 195 0 219 25 l25 24 0 769 c0 743 -1 771 -19 793 -19 24 -23 24 -219 27
l-200 3 -28 -25z m306 -796 l0 -660 -90 0 -90 0 0 660 0 660 90 0 90 0 0 -660z"/>
<path d="M3085 3765 l-25 -24 0 -591 c0 -624 1 -637 45 -654 9 -3 104 -6 211
-6 194 0 195 0 219 25 l25 24 0 601 0 601 -25 24 c-24 25 -25 25 -225 25 -200
0 -201 0 -225 -25z m315 -625 l0 -490 -90 0 -90 0 0 490 0 490 90 0 90 0 0
-490z"/>
<path d="M2375 3449 c-45 -26 -45 -21 -45 -476 l0 -434 25 -24 c24 -25 25 -25
220 -25 l197 0 29 30 30 29 -3 430 -3 430 -23 23 c-22 22 -30 23 -215 26 -128
1 -199 -2 -212 -9z m295 -474 l0 -325 -90 0 -90 0 0 325 0 325 90 0 90 0 0
-325z"/>
<path d="M1622 3097 c-21 -23 -22 -30 -22 -294 l0 -272 26 -20 c25 -20 40 -21
219 -21 179 0 194 1 219 21 l26 20 0 273 c0 272 0 273 -23 294 -22 21 -32 22
-223 22 -197 0 -201 0 -222 -23z m308 -292 l0 -155 -85 0 -85 0 0 155 0 155
85 0 85 0 0 -155z"/>
<path d="M718 1612 c-284 -77 -399 -412 -223 -651 l45 -61 -43 -21 c-165 -84
-299 -231 -364 -399 -32 -81 -42 -126 -49 -217 -7 -78 -6 -82 19 -107 l26 -26
696 0 696 0 26 26 c25 25 26 30 20 102 -21 266 -180 503 -414 621 l-43 21 45
61 c112 152 111 354 -2 503 -100 131 -276 191 -435 148z m181 -158 c111 -33
188 -144 179 -259 -12 -139 -115 -236 -251 -236 -142 0 -243 94 -255 236 -9
112 62 219 170 256 66 23 90 23 157 3z m75 -680 c134 -35 260 -126 340 -245
38 -58 85 -177 86 -216 l0 -23 -575 0 -575 0 0 23 c1 39 48 158 86 216 78 116
206 210 335 245 73 20 226 20 303 0z"/>
<path d="M2480 1619 c-119 -23 -245 -123 -296 -234 -67 -145 -41 -330 60 -443
l37 -40 -68 -36 c-232 -122 -393 -377 -393 -622 0 -66 2 -74 26 -93 26 -21 34
-21 714 -21 680 0 688 0 714 21 24 19 26 27 26 93 0 245 -161 500 -393 622
l-68 36 37 40 c73 81 110 211 94 327 -24 173 -165 319 -339 351 -62 11 -88 11
-151 -1z m204 -187 c147 -80 175 -282 55 -401 -49 -50 -103 -71 -179 -71 -76
0 -130 21 -179 71 -141 140 -72 381 122 430 50 12 127 0 181 -29z m42 -663
c207 -63 368 -240 407 -446 l7 -33 -580 0 -580 0 6 27 c48 218 184 373 388
445 106 36 247 39 352 7z"/>
<path d="M4205 1616 c-152 -37 -260 -137 -305 -284 -40 -127 -16 -261 65 -371
l45 -61 -43 -21 c-232 -117 -394 -357 -413 -614 -7 -80 -6 -84 19 -109 l26
-26 696 0 696 0 26 26 c25 25 26 29 19 107 -7 91 -17 136 -49 217 -65 168
-199 315 -364 399 l-43 21 45 61 c179 243 56 587 -235 653 -80 19 -116 19
-185 2z m164 -162 c111 -33 188 -144 179 -259 -12 -141 -113 -236 -253 -236
-140 0 -241 95 -253 236 -9 112 62 219 170 256 66 23 90 23 157 3z m75 -680
c134 -35 260 -126 340 -245 38 -58 85 -177 86 -216 l0 -23 -575 0 -575 0 0 23
c1 39 48 158 86 216 78 117 196 204 329 242 78 23 227 24 309 3z"/>
</g>
</svg>
