<svg xmlns="http://www.w3.org/2000/svg" viewBox="0 0 48 48"><defs><style>.cls-1{fill:#201602;}</style></defs><title>Asset 27ldpi</title><g id="Layer_2" data-name="Layer 2"><g id="layer_1-2" data-name="layer 1"><path class="cls-1" d="M39,48H1a1,1,0,0,1-1-1V1A1,1,0,0,1,1,0H39a1,1,0,0,1,1,1V6H38V2H2V46H38V24h2V47A1,1,0,0,1,39,48Z"/><rect class="cls-1" x="4" y="4" width="2" height="2"/><rect class="cls-1" x="8" y="4" width="2" height="2"/><rect class="cls-1" x="12" y="4" width="2" height="2"/><rect class="cls-1" x="1" y="8" width="35" height="2"/><path class="cls-1" d="M43.65,16.92a1,1,0,0,1-.71-.29l-5.57-5.57a1,1,0,0,1,0-1.42l2.76-2.76a3,3,0,0,1,4.25,0l2.74,2.74a3,3,0,0,1,0,4.25l-2.76,2.76A1,1,0,0,1,43.65,16.92Zm-4.16-6.57,4.16,4.16,2.06-2.06a1,1,0,0,0,0-1.41L43,8.29a1,1,0,0,0-1.41,0Z"/><path class="cls-1" d="M13,42a1,1,0,0,1-.71-.29,1,1,0,0,1-.22-1.07l3.48-9.06a1,1,0,0,1,.72-.61,1,1,0,0,1,.92.27l5.57,5.57a1,1,0,0,1,.27.92,1,1,0,0,1-.61.72l-9.06,3.48A.92.92,0,0,1,13,42Zm3.86-8.26-2.12,5.52,5.52-2.12Z"/><path class="cls-1" d="M22.06,38.52a1,1,0,0,1-.71-.3l-5.57-5.57a1,1,0,0,1,0-1.41L37.37,9.64a1,1,0,0,1,1.41,0l5.58,5.58a1,1,0,0,1,.29.7,1,1,0,0,1-.29.71L22.76,38.22A1,1,0,0,1,22.06,38.52ZM17.9,31.94l4.16,4.16L42.24,15.92l-4.16-4.16Z"/><rect class="cls-1" x="25.24" y="23.82" width="2" height="7.88" transform="translate(-11.95 26.68) rotate(-44.99)"/><rect class="cls-1" x="6" y="40" width="7" height="2"/><rect class="cls-1" x="6" y="34" width="6" height="2"/><rect class="cls-1" x="6" y="28" width="9" height="2"/><rect class="cls-1" x="14" y="22" width="7" height="2"/><rect class="cls-1" x="6" y="22" width="6" height="2"/><rect class="cls-1" x="19" y="16" width="8" height="2"/><rect class="cls-1" x="6" y="16" width="11" height="2"/></g></g></svg>