<?xml version="1.0" standalone="no"?>
<!DOCTYPE svg PUBLIC "-//W3C//DTD SVG 20010904//EN"
 "http://www.w3.org/TR/2001/REC-SVG-20010904/DTD/svg10.dtd">
<svg version="1.0" xmlns="http://www.w3.org/2000/svg"
 width="512.000000pt" height="512.000000pt" viewBox="0 0 512.000000 512.000000"
 preserveAspectRatio="xMidYMid meet">

<g transform="translate(0.000000,512.000000) scale(0.100000,-0.100000)"
fill="#000000" stroke="none">
<path d="M2513 4894 c-42 -21 -63 -68 -63 -142 l0 -61 -42 -5 c-24 -3 -86 -11
-138 -17 -121 -14 -326 -66 -455 -114 -575 -216 -1034 -675 -1250 -1250 -48
-129 -100 -334 -114 -455 -6 -52 -14 -114 -17 -137 l-5 -43 -61 0 c-75 0 -122
-21 -142 -65 -20 -41 -20 -49 0 -90 20 -44 67 -65 142 -65 l61 0 5 -42 c3 -24
11 -86 17 -138 6 -52 26 -153 44 -225 193 -766 784 -1357 1550 -1550 72 -18
173 -38 225 -44 52 -6 114 -14 138 -17 l42 -5 0 -61 c0 -75 21 -122 65 -142
41 -20 49 -20 90 0 44 20 65 67 65 142 l0 61 43 5 c23 3 85 10 137 17 122 14
327 66 455 114 656 246 1149 798 1320 1480 18 72 38 173 44 225 6 52 14 114
17 138 l5 42 61 0 c75 0 122 21 142 65 9 18 16 38 16 45 0 7 -7 27 -16 45 -20
44 -67 65 -142 65 l-61 0 -5 43 c-3 23 -11 85 -17 137 -14 121 -66 326 -114
455 -192 511 -574 930 -1066 1170 -209 102 -468 178 -674 200 -33 3 -79 8
-102 11 l-43 5 0 61 c0 75 -21 122 -65 142 -41 20 -52 20 -92 0z m-63 -583 l0
-158 -71 -7 c-232 -21 -494 -118 -714 -263 -136 -91 -337 -292 -428 -428 -145
-220 -242 -482 -263 -714 l-7 -71 -158 0 -159 0 0 44 c0 67 39 278 70 385 187
629 687 1125 1317 1306 108 31 290 63 361 64 l52 1 0 -159z m485 129 c771
-149 1381 -779 1515 -1564 11 -65 20 -138 20 -162 l0 -44 -159 0 -158 0 -7 71
c-21 232 -118 494 -263 714 -91 137 -292 337 -429 428 -108 72 -289 161 -394
196 -89 29 -233 59 -319 67 l-71 7 0 160 0 160 78 -6 c42 -3 127 -16 187 -27z
m-485 -556 c0 -71 22 -118 65 -138 41 -20 49 -20 90 0 43 20 65 67 65 139 l0
57 58 -6 c93 -11 257 -55 356 -95 437 -178 760 -581 841 -1047 23 -130 24
-124 -41 -124 -71 0 -118 -22 -138 -65 -20 -41 -20 -49 0 -90 20 -43 67 -65
138 -65 65 0 64 6 41 -124 -50 -284 -180 -532 -389 -742 -210 -209 -458 -339
-742 -389 -130 -23 -124 -24 -124 41 0 71 -22 118 -65 138 -41 20 -49 20 -90
0 -43 -20 -65 -67 -65 -138 0 -65 6 -64 -124 -41 -466 81 -869 404 -1047 841
-40 99 -84 263 -95 357 l-6 57 57 0 c72 0 119 22 139 65 20 41 20 49 0 90 -20
43 -67 65 -139 65 l-57 0 6 58 c11 90 54 254 92 349 138 343 418 624 760 764
117 48 294 92 387 98 26 1 27 0 27 -55z m-1476 -1505 c21 -232 118 -494 263
-714 91 -136 292 -337 428 -428 220 -145 482 -242 714 -263 l71 -7 0 -158 0
-159 -44 0 c-62 0 -259 35 -366 65 -469 132 -884 453 -1134 877 -139 236 -233
528 -253 781 l-6 77 160 0 160 0 7 -71z m3496 29 c0 -64 -27 -219 -60 -345
-170 -654 -712 -1191 -1368 -1358 -116 -29 -271 -55 -329 -55 l-43 0 0 159 0
158 71 7 c236 22 489 115 714 264 136 90 337 290 427 427 145 218 243 482 264
714 l7 71 158 0 159 0 0 -42z"/>
<path d="M2441 3504 c-253 -68 -410 -331 -346 -579 21 -77 59 -147 118 -211
l48 -53 -45 -19 c-122 -55 -268 -182 -351 -307 -68 -102 -89 -166 -83 -248 7
-86 42 -150 126 -229 319 -301 816 -342 1182 -97 208 139 287 289 234 446 -53
155 -249 359 -418 434 l-47 20 48 53 c178 195 177 468 -4 657 -118 124 -300
177 -462 133z m235 -225 c51 -24 107 -83 130 -136 25 -57 23 -157 -5 -215 -26
-54 -84 -110 -138 -134 -50 -22 -156 -22 -206 0 -116 51 -182 178 -157 301 35
168 219 257 376 184z m45 -795 c137 -40 279 -146 357 -266 55 -84 60 -113 30
-158 -58 -86 -234 -193 -373 -226 -43 -10 -111 -17 -175 -17 -64 0 -132 7
-175 17 -139 33 -315 140 -373 226 -30 45 -25 74 30 158 95 147 270 259 443
286 51 7 179 -3 236 -20z"/>
</g>
</svg>
